<svg width="24" height="24" viewBox="0 0 24 24" fill="none" xmlns="http://www.w3.org/2000/svg">
<path d="M21 5.97742V17.9139H13V17.9083V17.8948V17.8811V17.8672V17.853V17.8386V17.8241V17.8093V17.7943V17.7791V17.7636V17.748V17.7322V17.7161V17.6999V17.6835V17.6668V17.65V17.6329V17.6157V17.5983V17.5806V17.5628V17.5448V17.5265V17.5081V17.4895V17.4707V17.4518V17.4326V17.4132V17.3937V17.374V17.3541V17.334V17.3137V17.2932V17.2726V17.2518V17.2308V17.2096V17.1883V17.1668V17.1451V17.1232V17.1012V17.079V17.0566V17.034V17.0113V16.9885V16.9654V16.9422V16.9188V16.8953V16.8716V16.8478V16.8237V16.7996V16.7752V16.7508V16.7261V16.7013V16.6764V16.6513V16.626V16.6007V16.5751V16.5494V16.5236V16.4976V16.4715V16.4452V16.4188V16.3922V16.3655V16.3387V16.3117V16.2846V16.2574V16.23V16.2025V16.1748V16.147V16.1191V16.0911V16.0629V16.0346V16.0062V15.9776V15.949V15.9202V15.8912V15.8622V15.833V15.8038V15.7744V15.7448V15.7152V15.6855V15.6556V15.6256V15.5955V15.5653V15.535V15.5046V15.4741V15.4434V15.4127V15.3818V15.3509V15.3198V15.2887V15.2574V15.2261V15.1946V15.1631V15.1314V15.0997V15.0678V15.0359V15.0039V14.9718V14.9395V14.9073V14.8749V14.8424V14.8098V14.7772V14.7445V14.7117V14.6788V14.6458V14.6127V14.5796V14.5464V14.5131V14.4797V14.4463V14.4128V14.3792V14.3456V14.3118V14.278V14.2442V14.2102V14.1762V14.1422V14.1081V14.0739V14.0396V14.0053V13.9709V13.9365V13.902V13.8674V13.8328V13.7982V13.7635V13.7287V13.6939V13.659V13.6241V13.5891V13.5541V13.519V13.4839V13.4488V13.4136V13.3783V13.343V13.3077V13.2723V13.2369V13.2015V13.166V13.1305V13.095V13.0594V13.0238V12.9881V12.9525V12.9168V12.881V12.8453V12.8095V12.7737V12.7379V12.702V12.6661V12.6302V12.5943V12.5584V12.5224V12.4865V12.4505V12.4145V12.3785V12.3425V12.3064V12.2704V12.2343V12.1983V12.1622V12.1261V12.09V12.0539V12.0178V11.9818V11.9457V11.9096V11.8735V11.8374V11.8013V11.7652V11.7291V11.6931V11.657V11.6209V11.5849V11.5489V11.5128V11.4768V11.4408V11.4048V11.3689V11.3329V11.297V11.2611V11.2252V11.1893V11.1535V11.1176V11.0818V11.046V11.0103V10.9745V10.9388V10.9032V10.8675V10.8319V10.7963V10.7608V10.7253V10.6898V10.6544V10.619V10.5836V10.5483V10.513V10.4778V10.4426V10.4074V10.3723V10.3372V10.3022V10.2673V10.2323V10.1975V10.1626V10.1279V10.0932V10.0585V10.0239V9.98934V9.95484V9.92041V9.88603V9.85172V9.81746V9.78327V9.74914V9.71508V9.68108V9.64715V9.61328V9.57949V9.54576V9.51211V9.47852V9.44501V9.41157V9.37821V9.34492V9.31171V9.27858V9.24553V9.21255V9.17966V9.14685V9.11413V9.08148V9.04892V9.01645V8.98407V8.95177V8.91957V8.88745V8.85543V8.82349V8.79166V8.75991V8.72826V8.69671V8.66526V8.6339V8.60265V8.57149V8.54044V8.50949V8.47864V8.4479V8.41726V8.38674V8.35631V8.326V8.2958V8.26571V8.23573V8.20587V8.17612V8.14648V8.11697V8.08756V8.05828V8.02912V8.00008V7.97115V7.94236V7.91368V7.88513V7.85671V7.82841V7.80024V7.7722V7.74428V7.7165V7.68886V7.66134V7.63396V7.60671V7.5796V7.55263V7.52579V7.4991V7.47254V7.44613V7.41986V7.39373V7.36774V7.3419V7.31621V7.29067V7.26527V7.24003V7.21493V7.18999V7.16519V7.14056V7.11607V7.09175V7.06758V7.04356V7.01971V6.99602V6.97249V6.94912V6.92591V6.90287V6.87999V6.85728V6.83473V6.81236V6.79015V6.76811V6.74625V6.72456V6.70304V6.68169V6.66053V6.63953V6.61872V6.59808V6.57763V6.55735V6.53726V6.51735V6.49762V6.47808V6.45872V6.43956V6.42058V6.40178V6.38318V6.36477V6.34655V6.32853V6.3107V6.29306V6.27563V6.25838V6.24134V6.2245V6.20786V6.19141V6.17518V6.15914V6.14331V6.12768V6.11227V6.09706V6.08206V6.06726V6.05268V6.03831V6.02416V6.01022V5.99649V5.98298V5.97742H21Z" stroke="#0173B2" stroke-width="2"/>
<path d="M13.7587 2.14449C13.6067 2.01841 13.4027 1.96399 13.2107 2.00381L2.544 3.99464C2.228 4.05304 2 4.32645 2 4.64631V19.2458C2 19.5643 2.228 19.8391 2.544 19.8975L13.2107 21.8883C13.2507 21.8963 13.292 21.9002 13.3333 21.9002C13.488 21.9002 13.6387 21.8471 13.7587 21.7476C13.912 21.6215 14 21.4331 14 21.2366V2.65547C14 2.45772 13.912 2.27058 13.7587 2.14449Z" fill="#0173B2"/>
<path d="M11.2433 14.212L9.09419 11.7492L11.2678 8.94711C11.4989 8.65 11.4445 8.22205 11.1495 7.99036C10.8546 7.75867 10.4277 7.81319 10.1953 8.10893L8.18206 10.7039L6.48557 8.7604C6.23681 8.47419 5.80725 8.44829 5.52722 8.69634C5.24447 8.94439 5.21592 9.37506 5.46333 9.65718L7.33245 11.7997L5.4375 14.242C5.20641 14.5391 5.26078 14.967 5.55576 15.1987C5.68083 15.2955 5.829 15.3418 5.97445 15.3418C6.17699 15.3418 6.37682 15.2519 6.5114 15.0788L8.24459 12.8436L10.2211 15.1074C10.3557 15.2628 10.5433 15.3418 10.7322 15.3418C10.8913 15.3418 11.0503 15.2859 11.1795 15.1728C11.4622 14.9248 11.4907 14.4941 11.2433 14.212Z" fill="white" stroke="white"/>
<rect x="13" y="8.95923" width="5" height="1.99093" fill="#0173B2"/>
<rect x="13" y="12.941" width="5" height="1.99093" fill="#0173B2"/>
</svg>
