<svg xmlns="http://www.w3.org/2000/svg" width="25.616" height="24" viewBox="0 0 25.616 24">
  <g id="ic_nav1" transform="translate(-0.007 0)">
    <path id="Union_2" data-name="Union 2" d="M-51-281a.745.745,0,0,1-.364-.094,12.789,12.789,0,0,1-6.627-11.156A12.794,12.794,0,0,1-45.185-305a12.794,12.794,0,0,1,12.808,12.75A12.79,12.79,0,0,1-39-281.094a.748.748,0,0,1-.365.094Zm-5.489-11.25a11.284,11.284,0,0,0,5.687,9.75h11.24a11.286,11.286,0,0,0,5.687-9.75A11.291,11.291,0,0,0-45.185-303.5,11.291,11.291,0,0,0-56.492-292.25ZM-46.686-284a2.253,2.253,0,0,1-2.252-2.25,2.254,2.254,0,0,1,2.252-2.25h3a2.254,2.254,0,0,1,2.252,2.25A2.254,2.254,0,0,1-43.684-284Zm-.751-2.25a.751.751,0,0,0,.751.751h3a.751.751,0,0,0,.751-.751.751.751,0,0,0-.751-.75h-3A.751.751,0,0,0-47.436-286.25Zm8.255-5.25a.751.751,0,0,1-.751-.75.751.751,0,0,1,.751-.751h2.218a8.206,8.206,0,0,0-1.88-4.526l-1.565,1.564a.747.747,0,0,1-.531.22.747.747,0,0,1-.53-.22.749.749,0,0,1,0-1.06l1.565-1.565a8.22,8.22,0,0,0-4.332-1.858c.445,2.008,1.3,5.98,1.3,6.7a2.253,2.253,0,0,1-2.252,2.25,2.253,2.253,0,0,1-2.251-2.25c0-.715.859-4.686,1.3-6.7a8.221,8.221,0,0,0-4.332,1.859l1.565,1.564a.749.749,0,0,1,0,1.06.747.747,0,0,1-.531.22.747.747,0,0,1-.53-.22l-1.565-1.564A8.216,8.216,0,0,0-53.406-293h2.218a.751.751,0,0,1,.75.751.75.75,0,0,1-.75.75h-3a.751.751,0,0,1-.751-.75,9.716,9.716,0,0,1,2.8-6.828.709.709,0,0,1,.125-.124,9.728,9.728,0,0,1,6.832-2.8,9.728,9.728,0,0,1,6.833,2.8.993.993,0,0,1,.124.124,9.712,9.712,0,0,1,2.8,6.828.75.75,0,0,1-.75.75Zm-6.754-2.25a.75.75,0,0,0,.75.75.751.751,0,0,0,.751-.75c0-.314-.324-1.972-.751-3.984C-45.611-295.722-45.933-294.064-45.935-293.75Z" transform="translate(58 305)" fill="#08b3bb"/>
  </g>
</svg>
