<svg xmlns="http://www.w3.org/2000/svg" width="24" height="24" viewBox="0 0 24 24">
  <g id="ic_nav3" transform="translate(-0.422 0)">
    <path id="Union_1" data-name="Union 1" d="M-124.339-281.3l-1.941-1.941a1.018,1.018,0,0,1,0-1.439l5.14-5.14a9.938,9.938,0,0,1-1.442-5.18,9.937,9.937,0,0,1,2.929-7.072A9.937,9.937,0,0,1-112.58-305a9.937,9.937,0,0,1,7.073,2.93,9.937,9.937,0,0,1,2.93,7.072,9.937,9.937,0,0,1-2.93,7.073A9.937,9.937,0,0,1-112.58-285a9.939,9.939,0,0,1-5.18-1.443L-122.9-281.3a1.013,1.013,0,0,1-.719.3A1.013,1.013,0,0,1-124.339-281.3Zm-.634-2.66,1.352,1.353,4.676-4.676q-.367-.3-.708-.643t-.644-.708Zm6.333-17.1a8.513,8.513,0,0,0-2.51,6.059,8.517,8.517,0,0,0,2.51,6.06,8.512,8.512,0,0,0,6.059,2.509,8.516,8.516,0,0,0,6.06-2.509,8.516,8.516,0,0,0,2.509-6.06,8.512,8.512,0,0,0-2.509-6.059,8.516,8.516,0,0,0-6.06-2.509A8.512,8.512,0,0,0-118.639-301.057Zm1.307,10.8a6.9,6.9,0,0,1-2.038-4.916,6.9,6.9,0,0,1,2.038-4.917,6.911,6.911,0,0,1,4.918-2.036,6.913,6.913,0,0,1,4.919,2.036,6.9,6.9,0,0,1,2.038,4.917,6.9,6.9,0,0,1-2.038,4.916,6.913,6.913,0,0,1-4.919,2.036A6.911,6.911,0,0,1-117.332-290.255Zm1-8.836a5.505,5.505,0,0,0-1.625,3.92,5.5,5.5,0,0,0,1.625,3.92,5.51,5.51,0,0,0,3.922,1.624,5.512,5.512,0,0,0,3.923-1.624,5.5,5.5,0,0,0,1.624-3.92,5.505,5.505,0,0,0-1.624-3.92,5.512,5.512,0,0,0-3.923-1.624A5.51,5.51,0,0,0-116.336-299.091Zm1.633,7.576v-1.409h1.426v-2.131H-114.6v-1.409h2.729v3.54h1.426v1.409Zm1.32-6.065v-1.507h1.508v1.507Z" transform="translate(127 305)" fill="#08b3bb"/>
  </g>
</svg>
