<svg xmlns="http://www.w3.org/2000/svg" width="25.5" height="24.75" viewBox="0 0 25.5 24.75">
  <g id="ic_nav5" transform="translate(0.75)">
    <path id="Path_11" data-name="Path 11" d="M15.781,4.333v.75h.75A3.658,3.658,0,0,1,20.27,8.661h0v.006a3.674,3.674,0,0,1-3.757,3.583h-9A3.674,3.674,0,0,1,3.759,8.667,3.674,3.674,0,0,1,7.517,5.083h.75v-.75A3.674,3.674,0,0,1,12.024.75,3.674,3.674,0,0,1,15.781,4.333Z" fill="none" stroke="#08b3bb" stroke-width="1.5"/>
    <rect id="Rectangle_4" data-name="Rectangle 4" width="5" height="10" rx="1" transform="translate(10 15) rotate(90)" fill="none" stroke="#08b3bb" stroke-width="1.5"/>
    <rect id="Rectangle_5" data-name="Rectangle 5" width="5" height="10" rx="1" transform="translate(24 15) rotate(90)" fill="none" stroke="#08b3bb" stroke-width="1.5"/>
    <rect id="Rectangle_6" data-name="Rectangle 6" width="5" height="10" rx="1" transform="translate(10 19) rotate(90)" fill="none" stroke="#08b3bb" stroke-width="1.5"/>
    <rect id="Rectangle_7" data-name="Rectangle 7" width="5" height="10" rx="1" transform="translate(24 19) rotate(90)" fill="none" stroke="#08b3bb" stroke-width="1.5"/>
    <path id="Path_12" data-name="Path 12" d="M12,12v9" fill="none" stroke="#08b3bb" stroke-width="1.5"/>
    <path id="Path_13" data-name="Path 13" d="M14.088,21H9" transform="translate(0.519)" fill="none" stroke="#08b3bb" stroke-width="1.5"/>
  </g>
</svg>
