<svg xmlns="http://www.w3.org/2000/svg" width="24.101" height="24" viewBox="0 0 24.101 24">
  <g id="ic_nav7" transform="translate(0.036)">
    <path id="Path_20" data-name="Path 20" d="M20.639,12.73l-.043.419.335.255,2.157,1.641a.467.467,0,0,1,.116.616h0l0,.007-2.326,3.906h0a.538.538,0,0,1-.64.217l-2.542-1-.37-.145-.328.225a8.922,8.922,0,0,1-1.325.751L15.3,19.8l-.058.4-.377,2.62a.542.542,0,0,1-.527.429H9.692a.537.537,0,0,1-.523-.4l-.381-2.632-.059-.405-.372-.17a8.464,8.464,0,0,1-1.32-.752l-.329-.229-.373.146L3.8,19.8a.545.545,0,0,1-.648-.209L.832,15.675h0l0-.005a.459.459,0,0,1,.106-.6L3.1,13.421l.332-.254-.042-.416c-.025-.255-.04-.5-.04-.748a7.1,7.1,0,0,1,.038-.73l.043-.418L3.1,10.6.943,8.956a.466.466,0,0,1-.116-.615h0l0-.008,2.324-3.9A.551.551,0,0,1,3.8,4.21l2.536,1,.371.146.328-.226a8.87,8.87,0,0,1,1.324-.752l.37-.17.059-.4L9.17,1.178A.542.542,0,0,1,9.7.75h4.642a.535.535,0,0,1,.52.4l.381,2.633.059.4.372.17a8.481,8.481,0,0,1,1.321.752l.329.229.373-.146L20.225,4.2a.548.548,0,0,1,.652.207L23.2,8.324h0l0,.005a.459.459,0,0,1-.106.6l-2.168,1.657-.333.254.042.416c.025.255.04.5.04.748A7.11,7.11,0,0,1,20.639,12.73Z" fill="none" stroke="#08b3bb" stroke-width="1.5"/>
    <circle id="Ellipse_1" data-name="Ellipse 1" cx="2" cy="2" r="2" transform="translate(10 7)" fill="none" stroke="#08b3bb" stroke-width="1.5"/>
    <path id="Path_21" data-name="Path 21" d="M7.75,16A3.25,3.25,0,0,1,11,12.75h2A3.25,3.25,0,0,1,16.25,16v.25H7.75Z" fill="none" stroke="#08b3bb" stroke-width="1.5"/>
  </g>
</svg>
